<svg width="24" height="24" viewBox="0 0 24 24" fill="none" xmlns="http://www.w3.org/2000/svg">
    <rect width="100%" height="100%" fill="#404889" />
<path fill-rule="evenodd" clip-rule="evenodd" d="M18.5711 12.9328C18.5711 13.0914 18.5081 13.2436 18.3959 13.3558C18.2837 13.468 18.1315 13.5311 17.9729 13.5311H5.83571C5.67704 13.5311 5.52486 13.468 5.41266 13.3558C5.30046 13.2436 5.23743 13.0914 5.23743 12.9328V5.84848C5.23743 5.51763 5.50571 5.2502 5.83571 5.2502H17.9729C18.3029 5.2502 18.5711 5.51763 18.5711 5.84848V12.9328ZM16.1849 17.8348H18.4769V16.1976H16.1849V17.8348ZM8.46543 17.8348H15.3431V17.3205H8.46543V17.8348ZM5.28457 17.8348H7.62371V16.1976H5.28371L5.28457 17.8348ZM20.3403 4.18905C20.3403 3.21791 19.64 2.42334 18.7837 2.42334L5.21514 2.48848C4.358 2.48848 3.65771 3.28391 3.65771 4.25505L3.67743 18.2179C3.67743 18.9911 4.11457 19.6519 4.72314 19.8893V21.5779H7.62371V19.9871H16.418V21.5779H19.3194V19.8619C19.928 19.6031 20.3051 18.9628 20.3051 18.2188L20.3429 5.70191L20.3403 4.18905Z" fill="white"/>
</svg>