<svg width="24" height="24" viewBox="0 0 24 24" fill="none" xmlns="http://www.w3.org/2000/svg">
    <rect width="100%" height="100%" fill="#404889" />
<path fill-rule="evenodd" clip-rule="evenodd" d="M19.5935 15.3944C19.5935 15.527 19.4838 15.6345 19.3485 15.6345H15.5319C15.3967 15.6345 15.287 15.527 15.287 15.3944V11.6137C15.287 11.4811 15.3967 11.3736 15.5319 11.3736H19.3485C19.4838 11.3736 19.5935 11.4811 19.5935 11.6137V15.3944ZM14.3613 15.3944C14.3613 15.527 14.2516 15.6345 14.1164 15.6345H10.2998C10.1645 15.6345 10.0548 15.527 10.0548 15.3944V11.6137C10.0548 11.4811 10.1645 11.3736 10.2998 11.3736H14.1164C14.2516 11.3736 14.3613 11.4811 14.3613 11.6137V15.3944ZM12.0112 5.33065L12.6218 5.09291L15.3482 10.2295H9.38984L12.0112 5.33065ZM9.04866 15.3944C9.04866 15.527 8.93898 15.6345 8.80371 15.6345H4.98713C4.85186 15.6345 4.74219 15.527 4.74219 15.3944V11.6137C4.74219 11.4811 4.85186 11.3736 4.98713 11.3736H8.80371C8.93898 11.3736 9.04866 11.4811 9.04866 11.6137V15.3944ZM20.0603 10.2295H16.3936L13.4888 4.75753L21 1.84487L20.6587 1L16.4973 2.61443L16.0501 1.50503L7.13168 4.95917L7.58072 6.0733L3 7.85012L3.34126 8.69543L10.6899 5.84318L8.3426 10.2295H4.38821C3.98558 10.2295 3.65551 10.556 3.65551 10.9506V20.2504C3.65551 20.6451 3.98558 21 4.38821 21H20.0603C20.4629 21 20.8009 20.6451 20.8009 20.2504V10.9506C20.8009 10.556 20.4629 10.2295 20.0603 10.2295Z" fill="white"/>
</svg>