<svg width="24" height="24" viewBox="0 0 24 24" fill="none" xmlns="http://www.w3.org/2000/svg">
    <rect width="100%" height="100%" fill="#404889" />
<path fill-rule="evenodd" clip-rule="evenodd" d="M10.6106 4.82005C10.6106 4.79925 10.6278 4.78237 10.6492 4.78237H13.3994C13.4207 4.78237 13.438 4.79925 13.438 4.82005V5.69177C13.438 5.7126 13.4207 5.72945 13.3994 5.72945H10.6492C10.6278 5.72945 10.6106 5.7126 10.6106 5.69177V4.82005ZM13.8375 6.92359L14.1457 4H9.83052L10.1387 6.92359H13.8375ZM6.36769 8.94121H17.6085V7.29968H6.36769V8.94121ZM13.755 18.2703C12.091 17.5487 10.3405 18.1463 9.50848 18.5973C8.84873 18.955 7.51737 19.4459 6.19597 19.1759L2 13.4451L12.1473 11.8597L22 13.4467L18.2895 19.0445C17.8714 19.2737 17.5783 19.369 16.9099 19.369C15.904 19.369 15.5767 19.1934 14.9414 18.8525C14.6458 18.6939 14.2835 18.4995 13.755 18.2703ZM6.1796 10.566C6.1796 10.5413 6.18796 10.506 6.21319 10.506H8.05813C8.08332 10.506 8.12079 10.5413 8.12079 10.566V11.9287L9.59778 11.6974V10.5689C9.59778 10.5427 9.60623 10.506 9.63315 10.506H11.7567C11.7836 10.506 11.7922 10.5427 11.7922 10.5689V11.3504L12.1421 11.2968L12.2015 11.3041L12.5096 11.3515V10.5689C12.5096 10.5427 12.5106 10.506 12.5375 10.506H14.661C14.688 10.506 14.704 10.5427 14.704 10.5689V11.7093L15.8856 11.9019V10.5651C15.8856 10.541 15.9257 10.506 15.9505 10.506H17.7402C17.7649 10.506 17.7845 10.541 17.7845 10.5651V12.2046L18.5441 12.3238V9.51776H5.50441V12.338L6.1796 12.2312V10.566ZM15.0542 19.4793C15.7319 19.8318 16.0123 19.9776 16.9099 19.9776C17.8807 19.9776 18.4028 19.5847 18.9995 19.1298C19.6213 18.6557 20.3587 18.1182 21.5403 18.1182V19.1406C20.6963 19.1406 20.227 19.4913 19.6446 19.9354C18.9901 20.4344 18.2415 21 16.9099 21C15.7505 21 15.2774 20.754 14.5614 20.3815L14.5612 20.3814C14.2571 20.2233 13.9123 20.044 13.4266 19.8333C12.3315 19.3585 11.1302 19.4679 9.8556 20.1587C8.94683 20.6515 6.40708 21.3756 4.78074 20.3176C3.54222 19.512 2.71185 19.4092 2.70358 19.4082L2.81229 18.3914C2.85529 18.3956 3.88357 18.5053 5.36191 19.467C6.53157 20.2277 8.65721 19.6388 9.34671 19.265C10.9022 18.4219 12.4603 18.2954 13.8521 18.8991C14.3719 19.1245 14.7499 19.3211 15.0537 19.479L15.0542 19.4793Z" fill="white"/>
</svg>