<svg width="24" height="24" viewBox="0 0 24 24" fill="none" xmlns="http://www.w3.org/2000/svg">
    <rect width="100%" height="100%" fill="#404889" />
<path fill-rule="evenodd" clip-rule="evenodd" d="M4.49826 9.91934C4.41463 9.91934 4.34676 9.98693 4.34676 10.0703V12.0296C4.34676 12.113 4.41463 12.1806 4.49826 12.1806H7.24831C7.33193 12.1806 7.3998 12.113 7.3998 12.0296V10.0703C7.3998 9.98693 7.33193 9.91934 7.24831 9.91934H4.49826ZM8.62399 8.31589C8.54036 8.31589 8.4725 8.38348 8.4725 8.46686V10.4262C8.4725 10.5096 8.54036 10.5772 8.62399 10.5772H11.374C11.4577 10.5772 11.5255 10.5096 11.5255 10.4262V8.46686C11.5255 8.38348 11.4577 8.31589 11.374 8.31589H8.62399ZM12.791 6.67132C12.7074 6.67132 12.6395 6.73892 12.6395 6.8223V8.78159C12.6395 8.86501 12.7074 8.9326 12.791 8.9326H15.541C15.6247 8.9326 15.6925 8.86501 15.6925 8.78159V6.8223C15.6925 6.73892 15.6247 6.67132 15.541 6.67132H12.791ZM16.9167 5.10899C16.8331 5.10899 16.7652 5.17658 16.7652 5.25996V7.21925C16.7652 7.30267 16.8331 7.37026 16.9167 7.37026H19.6668C19.7504 7.37026 19.8183 7.30267 19.8183 7.21925V5.25996C19.8183 5.17658 19.7504 5.10899 19.6668 5.10899H16.9167ZM2.90275 18.3164V9.44089L2.02974 9.78173L1.68091 8.89885L16.7602 3L22.4226 3.00954L22.428 3.95775L21.5098 3.95619V11.0694L2.90275 18.3164ZM1.5 21V19.9299L22.5 11.5969V12.6671L1.5 21Z" fill="white"/>
</svg>