<svg xmlns="http://www.w3.org/2000/svg" fill="none"
    viewBox="0 0 24 24">
    <rect width="100%" height="100%" fill="#404889" />
    <path fill="white" fill-rule="evenodd" d="M14.96 21.46h2.02L20 24h-2.01l-.92-.77-9.82.01-.82.76H4.5l2.77-2.52 1.93-.01-.83.75h7.5l-.9-.76ZM17.2 0v.94h-1.75l-2.78 2.12v1.1h.1c3.3.12 6.42 1.21 6.56 4.2V15.5a35 35 0 0 1-.8 4.21s-.24.94-1.28 1.19l-.17.03-9.89.02a1.77 1.77 0 0 1-1.41-1.22s-.76-3.08-.8-4.12l-.01-.1V8.57c0-3.14 3.16-4.29 6.55-4.41h.12V3.03L8.86.94H7.09V0h10.1ZM8.61 16.23H6.43v.83h2.18v-.83Zm9.27 0H15.7v.83h2.18v-.83Zm-.75-8.25H7.18a.8.8 0 0 0-.5.18.67.67 0 0 0-.24.43v2.48c0 .35.27.64.64.69H17.13a.8.8 0 0 0 .5-.17.67.67 0 0 0 .24-.43V8.68c0-.09-.01-.18-.05-.26a.69.69 0 0 0-.16-.23.82.82 0 0 0-.53-.2Zm-4.99-1.94a.59.59 0 0 0-.38.15.5.5 0 0 0-.12.16.46.46 0 0 0-.04.19c0 .28.25.5.54.5.15 0 .28-.05.38-.15a.47.47 0 0 0 0-.7.57.57 0 0 0-.38-.15Zm1.68-5.1h-3.34l1.68 1.27L13.82.94Z" clip-rule="evenodd"/>
</svg>