<svg width="24" height="24" viewBox="0 0 24 24" fill="none" xmlns="http://www.w3.org/2000/svg">
    <rect width="100%" height="100%" fill="#404889" />
<path fill-rule="evenodd" clip-rule="evenodd" d="M9.74577 21.4114L6.67042 24H5L8.07341 21.4114H9.74577ZM14.8026 21.4114L18 24H16.2918L13.0953 21.4114H14.8026ZM14.8781 1V1.86229L11.9811 1.86143V5.03486H15.569C15.8984 5.03943 16.2147 5.1499 16.4587 5.34564C16.7028 5.54138 16.8581 5.80901 16.8954 6.09857L16.9012 6.21V19.704C16.9012 20.3057 16.3548 20.8286 15.694 20.8886L15.568 20.8937H7.44943C6.77603 20.8937 6.22181 20.406 6.1598 19.8163L6.15398 19.7049V6.21C6.15398 5.60829 6.66751 5.09829 7.32444 5.04L7.44943 5.034H11.018V1.86143H8.12089V1H14.8781ZM14.4567 16.6911C13.9751 16.6911 13.5846 17.04 13.5846 17.4703C13.5846 17.8997 13.9751 18.2486 14.4567 18.2486C14.9392 18.2486 15.3287 17.8997 15.3287 17.4703C15.3293 17.3684 15.3073 17.2674 15.2638 17.1731C15.2203 17.0788 15.1563 16.9929 15.0753 16.9205C14.9943 16.8481 14.898 16.7905 14.7919 16.751C14.6857 16.7115 14.5718 16.6917 14.4567 16.6911ZM8.61892 16.6911C8.13639 16.6911 7.74689 17.04 7.74689 17.4703C7.74689 17.8997 8.13639 18.2486 8.61892 18.2486C9.10047 18.2486 9.49094 17.8997 9.49094 17.4703C9.49158 17.3684 9.46953 17.2674 9.42605 17.1731C9.38258 17.0788 9.31852 16.9929 9.23754 16.9205C9.15657 16.8481 9.06026 16.7905 8.95411 16.751C8.84797 16.7115 8.73407 16.6917 8.61892 16.6911ZM15.1039 8.94086H7.89804C7.60736 8.94086 7.36513 9.13114 7.31959 9.37971L7.31184 9.46457V15.1946C7.31184 15.4543 7.52501 15.6703 7.80309 15.7106L7.89804 15.7174H15.1039C15.3946 15.7174 15.6368 15.528 15.6823 15.2794L15.6901 15.1937V9.46457C15.6901 9.17571 15.4275 8.94086 15.1039 8.94086ZM12.7397 6.11743H10.3155V7.52914H12.7388L12.7397 6.11743Z" fill="white"/>
</svg>