<svg width="24" height="24" viewBox="0 0 24 24" fill="none" xmlns="http://www.w3.org/2000/svg">
    <rect width="100%" height="100%" fill="#404889" />
<path d="M13.5333 5.30286C14.4124 5.30286 15.1152 4.56952 15.1152 3.65143C15.1152 2.73333 14.4124 2 13.5333 2C12.6543 2 11.9505 2.73333 11.9505 3.65143C11.9505 4.56857 12.6543 5.30286 13.5333 5.30286ZM13.621 10.9905H17.9286V9.33905H14.7638L13.0048 6.31238C12.7419 5.85333 12.2143 5.48571 11.6867 5.48571C11.5114 5.48571 11.4229 5.48571 11.2476 5.57714L6.5 7.13714V11.9086H8.08286V8.51333L9.92857 7.87143L6.5 22H8.08286L10.6314 14.5686L12.6543 17.4124V22H14.2362V16.1286L12.0381 12L12.6543 9.33905L13.621 10.9905Z" fill="white"/>
</svg>