<svg width="24" height="24" viewBox="0 0 27 33" fill="none" xmlns="http://www.w3.org/2000/svg">
<rect width="100%" height="100%" fill="#404889" />
<g clip-path="url(#clip0_178_3781)">
<path d="M3.95347 23.3332C2.0656 21.4215 0.780106 18.986 0.259336 16.3349C-0.261433 13.6837 0.00584745 10.9357 1.02744 8.43832C2.04904 5.94089 3.77916 3.80606 5.99924 2.30396C8.21933 0.801845 10.8296 0 13.5 0C16.1704 0 18.7807 0.801845 21.0008 2.30396C23.2208 3.80606 24.951 5.94089 25.9726 8.43832C26.9942 10.9357 27.2614 13.6837 26.7407 16.3349C26.2199 18.986 24.9344 21.4215 23.0465 23.3331L13.5 33L3.95347 23.3332Z" fill="#F6F6F4"/>
<rect opacity="0.01" x="12" y="22" width="1" height="1" fill="#3FC67C"/>
<path d="M21.9853 22.261L13.5 30.8533L5.01467 22.261C3.33646 20.5616 2.19358 18.3964 1.73057 16.0393C1.26756 13.6822 1.50521 11.239 2.41346 9.0187C3.32172 6.79836 4.85979 4.90061 6.83318 3.56542C8.80656 2.23023 11.1266 1.51758 13.5 1.51758C15.8734 1.51758 18.1934 2.23023 20.1668 3.56542C22.1402 4.90061 23.6783 6.79836 24.5865 9.0187C25.4948 11.239 25.7324 13.6822 25.2694 16.0393C24.8064 18.3964 23.6635 20.5616 21.9853 22.261ZM13.5 19.0693C14.9145 19.0693 16.271 18.5003 17.2712 17.4875C18.2714 16.4747 18.8333 15.101 18.8333 13.6687C18.8333 12.2364 18.2714 10.8627 17.2712 9.84994C16.271 8.83714 14.9145 8.26816 13.5 8.26816C12.0855 8.26816 10.729 8.83714 9.72876 9.84994C8.72857 10.8627 8.16667 12.2364 8.16667 13.6687C8.16667 15.101 8.72857 16.4747 9.72876 17.4875C10.729 18.5003 12.0855 19.0693 13.5 19.0693ZM13.5 16.369C12.7928 16.369 12.1145 16.0845 11.6144 15.5781C11.1143 15.0717 10.8333 14.3849 10.8333 13.6687C10.8333 12.9525 11.1143 12.2657 11.6144 11.7593C12.1145 11.2529 12.7928 10.9684 13.5 10.9684C14.2072 10.9684 14.8855 11.2529 15.3856 11.7593C15.8857 12.2657 16.1667 12.9525 16.1667 13.6687C16.1667 14.3849 15.8857 15.0717 15.3856 15.5781C14.8855 16.0845 14.2072 16.369 13.5 16.369Z" fill="#232443"/>
    </g>
<defs>
<clipPath id="clip0_178_3781">
<rect width="27" height="33" fill="white"/>
        </clipPath>
    </defs>
</svg>