<svg xmlns="http://www.w3.org/2000/svg" fill="none" viewBox="0 0 150 22">
    <rect width="100%" height="100%" fill="#404889" />
    <path fill="white" d="M0 5.73h4.5v4.9S4.76 5.5 9.57 5.5c4.42 0 4.96 3.06 4.96 5.19 0 0 .26-5.19 5.95-5.19 3.61 0 5.92 2.1 5.92 7.07v9.4h-4.5V13.6c0-2.6-.83-4.22-2.93-4.22-1.9 0-3.44 1.56-3.44 4.48v8.1h-4.5V13.6c0-2.6-.9-4.22-2.97-4.22-2.06 0-3.54 1.56-3.54 4.48v8.1H0V5.73ZM74.62 5.73h4.69l3.08 9.63h.04l2.85-9.63h3.9l2.88 9.63h.07l3.06-9.63h4.65l-5.71 16.23h-3.89l-3.03-9.86h-.03l-3 9.86H80.3L74.62 5.73ZM73.15 5.72v3.55h-4.62v7.18c0 .38.25 1.62.93 1.81.69.2.68.07 1.38-.05.42-.08.82-.2 1.2-.38l.11-.04c0 .05-.02.1 0 .13.15.28.75 2.47 1.3 3.56 0 .1-.05.13-.14.17-1.4.55-2.86.77-4.38.66a6.12 6.12 0 0 1-3.07-.98c-.99-.68-1.28-1.61-1.55-2.73a6.55 6.55 0 0 1-.18-1.58V9.27H62.1V5.73h2V.44c2.22-.16 4.16-.47 4.56-.44v.58c0 .46 0 .92-.03 1.39a3.35 3.35 0 0 1-1.27 2.4 6.42 6.42 0 0 1-3.09 1.3l-.02.06h8.9ZM149.98 21.96h-4.5V13.6c0-2.6-1.48-4.22-3.55-4.22-2.06 0-3.54 1.56-3.54 4.48v8.1h-4.51V5.73h4.5v4.9s.65-5.13 5.06-5.13c5.93 0 6.53 4.25 6.53 5.96l.03 1.47-.02 9.03ZM32.15 15.48a4.06 4.06 0 0 0 2.54 2.84c1.87.7 4.03.15 5.34-1.35l.21-.24 2.91 2.45c-.34.47-.75.86-1.2 1.22a9.2 9.2 0 0 1-6.26 1.96 8.05 8.05 0 0 1-4.73-1.65 7.7 7.7 0 0 1-2.94-5.1 9.2 9.2 0 0 1 .64-5.37 7.38 7.38 0 0 1 5.93-4.45 8 8 0 0 1 4.78.68 7.36 7.36 0 0 1 4.01 5.16c.3 1.18.26 2.38.26 3.58 0 .21-.08.27-.3.27H32.16Zm7.37-3.34a3.46 3.46 0 0 0-1.06-1.82 3.82 3.82 0 0 0-2.93-.9c-1.35.1-2.4.69-3.01 1.95-.12.23-.2.49-.3.77h7.3ZM49.42 15.48a4.06 4.06 0 0 0 2.54 2.84c1.86.7 4.03.15 5.34-1.35l.2-.24 2.92 2.45c-.35.47-.75.86-1.2 1.22a9.2 9.2 0 0 1-6.26 1.96 8.05 8.05 0 0 1-4.74-1.65 7.7 7.7 0 0 1-2.94-5.1 9.2 9.2 0 0 1 .64-5.37 7.38 7.38 0 0 1 5.93-4.45 8 8 0 0 1 4.78.68 7.36 7.36 0 0 1 4.02 5.16c.29 1.18.26 2.38.25 3.58 0 .21-.07.27-.28.27h-11.2Zm7.36-3.34a3.46 3.46 0 0 0-1.06-1.82 3.82 3.82 0 0 0-2.92-.9c-1.35.1-2.4.69-3.02 1.95-.11.23-.19.49-.3.77h7.3ZM103.65 15.48a4.06 4.06 0 0 0 2.54 2.84 4.88 4.88 0 0 0 5.55-1.59l2.91 2.45c-.34.47-.75.86-1.2 1.22a9.2 9.2 0 0 1-6.26 1.96 8.05 8.05 0 0 1-4.73-1.65 7.7 7.7 0 0 1-2.94-5.1 9.2 9.2 0 0 1 .64-5.37 7.38 7.38 0 0 1 5.93-4.45 7.99 7.99 0 0 1 4.78.68 7.36 7.36 0 0 1 4.01 5.16c.3 1.18.26 2.38.26 3.58 0 .21-.08.27-.3.27h-11.19Zm7.37-3.34a3.45 3.45 0 0 0-1.06-1.82 3.82 3.82 0 0 0-2.93-.9c-1.35.1-2.4.69-3.01 1.95-.12.23-.2.49-.3.77h7.3ZM120.77 15.48a4.06 4.06 0 0 0 2.54 2.84c1.87.7 4.03.15 5.34-1.35l.2-.24 2.92 2.45c-.34.47-.75.86-1.2 1.22a9.2 9.2 0 0 1-6.26 1.96 8.05 8.05 0 0 1-4.73-1.65 7.71 7.71 0 0 1-2.94-5.1 9.19 9.19 0 0 1 .64-5.37 7.38 7.38 0 0 1 5.93-4.45 7.99 7.99 0 0 1 4.78.68 7.36 7.36 0 0 1 4.01 5.16c.29 1.18.26 2.38.25 3.58 0 .21-.07.27-.28.27h-11.2Zm7.37-3.34a3.46 3.46 0 0 0-1.06-1.82 3.82 3.82 0 0 0-2.93-.9c-1.35.1-2.4.69-3.02 1.95-.11.23-.19.49-.29.77h7.3Z"/></svg>